<?xml version="1.0" encoding="UTF-8" standalone="no"?><!DOCTYPE svg PUBLIC "-//W3C//DTD SVG 1.1//EN" "http://www.w3.org/Graphics/SVG/1.1/DTD/svg11.dtd"><svg width="100%" height="100%" viewBox="0 0 953 257" version="1.1" xmlns="http://www.w3.org/2000/svg" xmlns:xlink="http://www.w3.org/1999/xlink" xml:space="preserve" xmlns:serif="http://www.serif.com/" style="fill-rule:evenodd;clip-rule:evenodd;stroke-linejoin:round;stroke-miterlimit:1.41421;"><g id="Layer-1" serif:id="Layer 1"><path d="M430.139,58.554l0,194.457l-56.382,0l0,-138.075c0,-31.138 25.243,-56.382 56.382,-56.382" style="fill:url(#_Linear1);fill-rule:nonzero;"/><path d="M776.656,141.688l0,111.323l-56.386,0l0,-102.65c0,-31.445 -14.096,-45.904 -36.866,-45.904c-25.298,0 -43.009,16.266 -43.009,50.964l0,97.59l-56.386,0l0,-102.65c0,-31.445 -13.376,-45.904 -36.868,-45.904c-24.94,0 -42.651,16.266 -42.651,50.964l0,41.204c0,31.141 -25.243,56.386 -56.384,56.386l-0.002,0l0,-194.456l53.856,0l0,22.409c14.459,-16.627 36.143,-25.3 61.084,-25.3c27.11,0 50.242,10.48 63.976,31.805c15.543,-19.879 40.841,-31.805 70.118,-31.805c46.264,0 79.518,26.744 79.518,86.024" style="fill:url(#_Linear2);fill-rule:nonzero;"/><path d="M877.742,211.064c-0.192,0.004 -0.384,0.021 -0.576,0.021c-15.543,0 -24.212,-9.038 -24.212,-25.665l0,-129.035c0,-31.14 -25.245,-56.384 -56.386,-56.384l0,188.673c0,43.371 26.021,67.227 69.756,67.227c3.806,0 7.612,-0.294 11.418,-0.755l0,-44.082Z" style="fill:url(#_Linear3);fill-rule:nonzero;"/><path d="M953.121,58.554l0,194.457l-56.387,0l0,-138.071c0,-31.14 25.246,-56.386 56.387,-56.386" style="fill:url(#_Linear4);fill-rule:nonzero;"/><path d="M201.092,175.66c0,42.653 -32.895,81.689 -104.82,81.689c-35.422,0 -71.926,-9.759 -96.504,-27.11l22.769,-44.82c19.156,14.462 45.906,22.772 72.29,22.772c29.275,0 47.347,-11.927 47.347,-32.531c0,-19.155 -14.097,-31.082 -47.347,-31.082l-26.748,0l0,-38.675l52.05,-58.915l-60.728,0c-25.95,0 -46.985,-21.037 -46.985,-46.988l177.11,0l0,37.954l-57.107,65.058c45.541,7.228 68.673,35.421 68.673,72.648" style="fill:url(#_Linear5);fill-rule:nonzero;"/><path d="M299.405,56.386l0,22.772c-14.099,-15.906 -34.338,-23.495 -58.192,-23.495c-32.785,0 -61.057,13.909 -78.534,38.1c19.384,7.814 34.198,20.223 43.613,36.237c8.045,-17.874 24.706,-28.072 44.68,-28.072c27.833,0 49.517,20.239 49.517,53.853c0,33.617 -21.684,53.854 -49.517,53.854c-13.879,0 -26.165,-4.925 -35.077,-13.915c-3.715,17.119 -12.309,33.423 -26.182,46.706c14.805,8.738 32.382,13.474 51.5,13.474c26.026,0 46.626,-8.311 60.724,-25.298l0,22.409l53.854,0l0,-253.011c-31.143,0 -56.386,25.246 -56.386,56.386" style="fill:url(#_Linear6);fill-rule:nonzero;"/><path d="M373.783,33.829l56.355,0l0,-33.829l-22.525,0c-18.685,0 -33.83,15.147 -33.83,33.829" style="fill:url(#_Linear7);fill-rule:nonzero;"/><path d="M896.75,33.829l56.355,0l0,-33.829l-22.526,0c-18.684,0 -33.829,15.147 -33.829,33.829" style="fill:url(#_Linear8);fill-rule:nonzero;"/></g><defs><linearGradient id="_Linear1" x1="0" y1="0" x2="1" y2="0" gradientUnits="userSpaceOnUse" gradientTransform="matrix(1.53693e-14,251,-251,1.53693e-14,216,4.41892)"><stop offset="0" style="stop-color:#1408cc;stop-opacity:1"/><stop offset="1" style="stop-color:#8b56ec;stop-opacity:1"/></linearGradient><linearGradient id="_Linear2" x1="0" y1="0" x2="1" y2="0" gradientUnits="userSpaceOnUse" gradientTransform="matrix(1.53693e-14,251,-251,1.53693e-14,216,4.41892)"><stop offset="0" style="stop-color:#1408cc;stop-opacity:1"/><stop offset="1" style="stop-color:#8b56ec;stop-opacity:1"/></linearGradient><linearGradient id="_Linear3" x1="0" y1="0" x2="1" y2="0" gradientUnits="userSpaceOnUse" gradientTransform="matrix(1.53693e-14,251,-251,1.53693e-14,216,4.41892)"><stop offset="0" style="stop-color:#1408cc;stop-opacity:1"/><stop offset="1" style="stop-color:#8b56ec;stop-opacity:1"/></linearGradient><linearGradient id="_Linear4" x1="0" y1="0" x2="1" y2="0" gradientUnits="userSpaceOnUse" gradientTransform="matrix(1.53693e-14,251,-251,1.53693e-14,216,4.41892)"><stop offset="0" style="stop-color:#1408cc;stop-opacity:1"/><stop offset="1" style="stop-color:#8b56ec;stop-opacity:1"/></linearGradient><linearGradient id="_Linear5" x1="0" y1="0" x2="1" y2="0" gradientUnits="userSpaceOnUse" gradientTransform="matrix(1.53693e-14,251,-251,1.53693e-14,216,4.41892)"><stop offset="0" style="stop-color:#1408cc;stop-opacity:1"/><stop offset="1" style="stop-color:#8b56ec;stop-opacity:1"/></linearGradient><linearGradient id="_Linear6" x1="0" y1="0" x2="1" y2="0" gradientUnits="userSpaceOnUse" gradientTransform="matrix(1.53693e-14,251,-251,1.53693e-14,216,4.41892)"><stop offset="0" style="stop-color:#1408cc;stop-opacity:1"/><stop offset="1" style="stop-color:#8b56ec;stop-opacity:1"/></linearGradient><linearGradient id="_Linear7" x1="0" y1="0" x2="1" y2="0" gradientUnits="userSpaceOnUse" gradientTransform="matrix(1.53693e-14,251,-251,1.53693e-14,216,4.41892)"><stop offset="0" style="stop-color:#1408cc;stop-opacity:1"/><stop offset="1" style="stop-color:#8b56ec;stop-opacity:1"/></linearGradient><linearGradient id="_Linear8" x1="0" y1="0" x2="1" y2="0" gradientUnits="userSpaceOnUse" gradientTransform="matrix(1.53693e-14,251,-251,1.53693e-14,216,4.41892)"><stop offset="0" style="stop-color:#1408cc;stop-opacity:1"/><stop offset="1" style="stop-color:#8b56ec;stop-opacity:1"/></linearGradient></defs></svg>